<svg width="512" height="512" viewBox="0 0 512 512" fill="none" xmlns="http://www.w3.org/2000/svg">
<path d="M170.667 361.417C110.327 361.417 80.157 361.417 61.4118 342.891C49.2668 330.888 44.9905 314.146 43.4848 287.625H468.514C467.01 314.146 462.733 330.888 450.588 342.891C431.842 361.417 401.673 361.417 341.333 361.417H272V445.75H341.333C350.17 445.75 357.333 452.83 357.333 461.563C357.333 470.295 350.17 477.375 341.333 477.375H170.667C161.83 477.375 154.667 470.295 154.667 461.563C154.667 452.83 161.83 445.75 170.667 445.75H240V361.417H170.667Z" fill="#38BDF8"/>
<path d="M213.333 45.1667H310.777C310.777 45.1667 363.319 45.1667 345.432 135.576C327.546 225.986 469.333 112.376 469.195 202.969L469.333 234.917C469.333 246.546 469.333 257.041 469.195 266.542H42.8058C42.6667 257.041 42.6667 246.546 42.6667 234.917V213.833C42.6667 134.323 42.6667 94.5681 67.6602 69.8673C92.6539 45.1667 132.88 45.1667 213.333 45.1667Z" fill="white"/>
<path fill-rule="evenodd" clip-rule="evenodd" d="M377.623 147.953C386.534 153.906 402.133 147.771 433.333 135.501C439.988 132.884 443.315 131.575 445.925 129.325C446.591 128.751 447.217 128.136 447.8 127.481C450.089 124.915 451.42 121.643 454.082 115.1C466.562 84.4253 472.802 69.0877 466.747 60.3271C465.312 58.25 463.489 56.4584 461.377 55.047C452.466 49.0938 436.867 55.2288 405.667 67.4989C399.012 70.1161 395.685 71.4247 393.074 73.6754C392.409 74.2488 391.783 74.8646 391.2 75.5186C388.911 78.0851 387.58 81.3566 384.918 87.8996C372.438 118.575 366.198 133.912 372.253 142.673C373.689 144.75 375.511 146.542 377.623 147.953ZM400.906 101.5C400.906 91.4035 409.231 83.2188 419.5 83.2188C429.769 83.2188 438.094 91.4035 438.094 101.5C438.094 111.597 429.769 119.781 419.5 119.781C409.231 119.781 400.906 111.597 400.906 101.5ZM408.344 101.5C408.344 95.4423 413.339 90.5312 419.5 90.5312C425.661 90.5312 430.656 95.4423 430.656 101.5C430.656 107.558 425.661 112.469 419.5 112.469C413.339 112.469 408.344 107.558 408.344 101.5Z" fill="#38BDF8"/>
</svg>
